<mxfile host="app.diagrams.net" agent="Mozilla/5.0 (Macintosh; Intel Mac OS X 10_15_7) AppleWebKit/605.1.15 (KHTML, like Gecko) Version/18.6 Safari/605.1.15" version="28.2.8">
  <diagram name="Page-1" id="e7e014a7-5840-1c2e-5031-d8a46d1fe8dd">
    <mxGraphModel dx="1694" dy="1110" grid="1" gridSize="10" guides="1" tooltips="1" connect="1" arrows="1" fold="1" page="1" pageScale="1" pageWidth="1169" pageHeight="826" background="none" math="0" shadow="0">
      <root>
        <mxCell id="0" />
        <mxCell id="1" parent="0" />
        <mxCell id="pMwz3xdZ2TT84sI3ZfPQ-42" value="User" style="swimlane;fontStyle=1;align=center;verticalAlign=top;childLayout=stackLayout;horizontal=1;startSize=36.8;horizontalStack=0;resizeParent=1;resizeParentMax=0;resizeLast=0;collapsible=0;marginBottom=0;" vertex="1" parent="1">
          <mxGeometry x="38" y="628" width="219" height="192.8" as="geometry" />
        </mxCell>
        <mxCell id="pMwz3xdZ2TT84sI3ZfPQ-43" value="+ username: varchar" style="text;strokeColor=none;fillColor=none;align=left;verticalAlign=top;spacingLeft=4;spacingRight=4;overflow=hidden;rotatable=0;points=[[0,0.5],[1,0.5]];portConstraint=eastwest;" vertex="1" parent="pMwz3xdZ2TT84sI3ZfPQ-42">
          <mxGeometry y="36.8" width="219" height="37" as="geometry" />
        </mxCell>
        <mxCell id="pMwz3xdZ2TT84sI3ZfPQ-44" value="+ passwordHash: varchar" style="text;strokeColor=none;fillColor=none;align=left;verticalAlign=top;spacingLeft=4;spacingRight=4;overflow=hidden;rotatable=0;points=[[0,0.5],[1,0.5]];portConstraint=eastwest;" vertex="1" parent="pMwz3xdZ2TT84sI3ZfPQ-42">
          <mxGeometry y="73.8" width="219" height="37" as="geometry" />
        </mxCell>
        <mxCell id="pMwz3xdZ2TT84sI3ZfPQ-45" value="+ email: varchar" style="text;strokeColor=none;fillColor=none;align=left;verticalAlign=top;spacingLeft=4;spacingRight=4;overflow=hidden;rotatable=0;points=[[0,0.5],[1,0.5]];portConstraint=eastwest;" vertex="1" parent="pMwz3xdZ2TT84sI3ZfPQ-42">
          <mxGeometry y="110.8" width="219" height="37" as="geometry" />
        </mxCell>
        <mxCell id="pMwz3xdZ2TT84sI3ZfPQ-46" style="line;strokeWidth=1;fillColor=none;align=left;verticalAlign=middle;spacingTop=-1;spacingLeft=3;spacingRight=3;rotatable=0;labelPosition=right;points=[];portConstraint=eastwest;strokeColor=inherit;" vertex="1" parent="pMwz3xdZ2TT84sI3ZfPQ-42">
          <mxGeometry y="147.8" width="219" height="8" as="geometry" />
        </mxCell>
        <mxCell id="pMwz3xdZ2TT84sI3ZfPQ-47" value="+ userID: int(PK)" style="text;strokeColor=none;fillColor=none;align=left;verticalAlign=top;spacingLeft=4;spacingRight=4;overflow=hidden;rotatable=0;points=[[0,0.5],[1,0.5]];portConstraint=eastwest;" vertex="1" parent="pMwz3xdZ2TT84sI3ZfPQ-42">
          <mxGeometry y="155.8" width="219" height="37" as="geometry" />
        </mxCell>
        <mxCell id="pMwz3xdZ2TT84sI3ZfPQ-48" value="Project" style="swimlane;fontStyle=1;align=center;verticalAlign=top;childLayout=stackLayout;horizontal=1;startSize=33.142857142857146;horizontalStack=0;resizeParent=1;resizeParentMax=0;resizeLast=0;collapsible=0;marginBottom=0;" vertex="1" parent="1">
          <mxGeometry x="42" y="870" width="210" height="239.14285714285714" as="geometry" />
        </mxCell>
        <mxCell id="pMwz3xdZ2TT84sI3ZfPQ-49" value="+ name: varchar" style="text;strokeColor=none;fillColor=none;align=left;verticalAlign=top;spacingLeft=4;spacingRight=4;overflow=hidden;rotatable=0;points=[[0,0.5],[1,0.5]];portConstraint=eastwest;" vertex="1" parent="pMwz3xdZ2TT84sI3ZfPQ-48">
          <mxGeometry y="33.142857142857146" width="210" height="33" as="geometry" />
        </mxCell>
        <mxCell id="pMwz3xdZ2TT84sI3ZfPQ-50" value="+ startDate: date" style="text;strokeColor=none;fillColor=none;align=left;verticalAlign=top;spacingLeft=4;spacingRight=4;overflow=hidden;rotatable=0;points=[[0,0.5],[1,0.5]];portConstraint=eastwest;" vertex="1" parent="pMwz3xdZ2TT84sI3ZfPQ-48">
          <mxGeometry y="66.14285714285714" width="210" height="33" as="geometry" />
        </mxCell>
        <mxCell id="pMwz3xdZ2TT84sI3ZfPQ-51" value="+ deadline: date" style="text;strokeColor=none;fillColor=none;align=left;verticalAlign=top;spacingLeft=4;spacingRight=4;overflow=hidden;rotatable=0;points=[[0,0.5],[1,0.5]];portConstraint=eastwest;" vertex="1" parent="pMwz3xdZ2TT84sI3ZfPQ-48">
          <mxGeometry y="99.14285714285714" width="210" height="33" as="geometry" />
        </mxCell>
        <mxCell id="pMwz3xdZ2TT84sI3ZfPQ-52" value="+ budget: decimal" style="text;strokeColor=none;fillColor=none;align=left;verticalAlign=top;spacingLeft=4;spacingRight=4;overflow=hidden;rotatable=0;points=[[0,0.5],[1,0.5]];portConstraint=eastwest;" vertex="1" parent="pMwz3xdZ2TT84sI3ZfPQ-48">
          <mxGeometry y="132.14285714285714" width="210" height="33" as="geometry" />
        </mxCell>
        <mxCell id="pMwz3xdZ2TT84sI3ZfPQ-53" value="+ hourlyRate: decimal" style="text;strokeColor=none;fillColor=none;align=left;verticalAlign=top;spacingLeft=4;spacingRight=4;overflow=hidden;rotatable=0;points=[[0,0.5],[1,0.5]];portConstraint=eastwest;" vertex="1" parent="pMwz3xdZ2TT84sI3ZfPQ-48">
          <mxGeometry y="165.14285714285714" width="210" height="33" as="geometry" />
        </mxCell>
        <mxCell id="pMwz3xdZ2TT84sI3ZfPQ-54" style="line;strokeWidth=1;fillColor=none;align=left;verticalAlign=middle;spacingTop=-1;spacingLeft=3;spacingRight=3;rotatable=0;labelPosition=right;points=[];portConstraint=eastwest;strokeColor=inherit;" vertex="1" parent="pMwz3xdZ2TT84sI3ZfPQ-48">
          <mxGeometry y="198.14285714285714" width="210" height="8" as="geometry" />
        </mxCell>
        <mxCell id="pMwz3xdZ2TT84sI3ZfPQ-55" value="+ projectID: int(PK)" style="text;strokeColor=none;fillColor=none;align=left;verticalAlign=top;spacingLeft=4;spacingRight=4;overflow=hidden;rotatable=0;points=[[0,0.5],[1,0.5]];portConstraint=eastwest;" vertex="1" parent="pMwz3xdZ2TT84sI3ZfPQ-48">
          <mxGeometry y="206.14285714285714" width="210" height="33" as="geometry" />
        </mxCell>
        <mxCell id="pMwz3xdZ2TT84sI3ZfPQ-56" value="ProjectMember" style="swimlane;fontStyle=1;align=center;verticalAlign=top;childLayout=stackLayout;horizontal=1;startSize=40;horizontalStack=0;resizeParent=1;resizeParentMax=0;resizeLast=0;collapsible=0;marginBottom=0;" vertex="1" parent="1">
          <mxGeometry x="480" y="510" width="221" height="168" as="geometry" />
        </mxCell>
        <mxCell id="pMwz3xdZ2TT84sI3ZfPQ-57" value="+ role: varchar" style="text;strokeColor=none;fillColor=none;align=left;verticalAlign=top;spacingLeft=4;spacingRight=4;overflow=hidden;rotatable=0;points=[[0,0.5],[1,0.5]];portConstraint=eastwest;" vertex="1" parent="pMwz3xdZ2TT84sI3ZfPQ-56">
          <mxGeometry y="40" width="221" height="40" as="geometry" />
        </mxCell>
        <mxCell id="pMwz3xdZ2TT84sI3ZfPQ-58" style="line;strokeWidth=1;fillColor=none;align=left;verticalAlign=middle;spacingTop=-1;spacingLeft=3;spacingRight=3;rotatable=0;labelPosition=right;points=[];portConstraint=eastwest;strokeColor=inherit;" vertex="1" parent="pMwz3xdZ2TT84sI3ZfPQ-56">
          <mxGeometry y="80" width="221" height="8" as="geometry" />
        </mxCell>
        <mxCell id="pMwz3xdZ2TT84sI3ZfPQ-59" value="+ projectID: int(FK)" style="text;strokeColor=none;fillColor=none;align=left;verticalAlign=top;spacingLeft=4;spacingRight=4;overflow=hidden;rotatable=0;points=[[0,0.5],[1,0.5]];portConstraint=eastwest;" vertex="1" parent="pMwz3xdZ2TT84sI3ZfPQ-56">
          <mxGeometry y="88" width="221" height="40" as="geometry" />
        </mxCell>
        <mxCell id="pMwz3xdZ2TT84sI3ZfPQ-60" value="+ userID: int(FK)" style="text;strokeColor=none;fillColor=none;align=left;verticalAlign=top;spacingLeft=4;spacingRight=4;overflow=hidden;rotatable=0;points=[[0,0.5],[1,0.5]];portConstraint=eastwest;" vertex="1" parent="pMwz3xdZ2TT84sI3ZfPQ-56">
          <mxGeometry y="128" width="221" height="40" as="geometry" />
        </mxCell>
        <mxCell id="pMwz3xdZ2TT84sI3ZfPQ-61" value="Task" style="swimlane;fontStyle=1;align=center;verticalAlign=top;childLayout=stackLayout;horizontal=1;startSize=30.4;horizontalStack=0;resizeParent=1;resizeParentMax=0;resizeLast=0;collapsible=0;marginBottom=0;" vertex="1" parent="1">
          <mxGeometry x="433" y="856" width="316" height="308.4" as="geometry" />
        </mxCell>
        <mxCell id="pMwz3xdZ2TT84sI3ZfPQ-62" value="+ title: varchar" style="text;strokeColor=none;fillColor=none;align=left;verticalAlign=top;spacingLeft=4;spacingRight=4;overflow=hidden;rotatable=0;points=[[0,0.5],[1,0.5]];portConstraint=eastwest;" vertex="1" parent="pMwz3xdZ2TT84sI3ZfPQ-61">
          <mxGeometry y="30.4" width="316" height="30" as="geometry" />
        </mxCell>
        <mxCell id="pMwz3xdZ2TT84sI3ZfPQ-63" value="+ startDate: date" style="text;strokeColor=none;fillColor=none;align=left;verticalAlign=top;spacingLeft=4;spacingRight=4;overflow=hidden;rotatable=0;points=[[0,0.5],[1,0.5]];portConstraint=eastwest;" vertex="1" parent="pMwz3xdZ2TT84sI3ZfPQ-61">
          <mxGeometry y="60.4" width="316" height="30" as="geometry" />
        </mxCell>
        <mxCell id="pMwz3xdZ2TT84sI3ZfPQ-64" value="+ description: text" style="text;strokeColor=none;fillColor=none;align=left;verticalAlign=top;spacingLeft=4;spacingRight=4;overflow=hidden;rotatable=0;points=[[0,0.5],[1,0.5]];portConstraint=eastwest;" vertex="1" parent="pMwz3xdZ2TT84sI3ZfPQ-61">
          <mxGeometry y="90.4" width="316" height="30" as="geometry" />
        </mxCell>
        <mxCell id="pMwz3xdZ2TT84sI3ZfPQ-65" value="+ isCompleted: boolean" style="text;strokeColor=none;fillColor=none;align=left;verticalAlign=top;spacingLeft=4;spacingRight=4;overflow=hidden;rotatable=0;points=[[0,0.5],[1,0.5]];portConstraint=eastwest;" vertex="1" parent="pMwz3xdZ2TT84sI3ZfPQ-61">
          <mxGeometry y="120.4" width="316" height="30" as="geometry" />
        </mxCell>
        <mxCell id="pMwz3xdZ2TT84sI3ZfPQ-66" style="line;strokeWidth=1;fillColor=none;align=left;verticalAlign=middle;spacingTop=-1;spacingLeft=3;spacingRight=3;rotatable=0;labelPosition=right;points=[];portConstraint=eastwest;strokeColor=inherit;" vertex="1" parent="pMwz3xdZ2TT84sI3ZfPQ-61">
          <mxGeometry y="150.4" width="316" height="8" as="geometry" />
        </mxCell>
        <mxCell id="pMwz3xdZ2TT84sI3ZfPQ-67" value="+ taskID: int(PK)" style="text;strokeColor=none;fillColor=none;align=left;verticalAlign=top;spacingLeft=4;spacingRight=4;overflow=hidden;rotatable=0;points=[[0,0.5],[1,0.5]];portConstraint=eastwest;" vertex="1" parent="pMwz3xdZ2TT84sI3ZfPQ-61">
          <mxGeometry y="158.4" width="316" height="30" as="geometry" />
        </mxCell>
        <mxCell id="pMwz3xdZ2TT84sI3ZfPQ-68" value="+ projectID: int(FK)" style="text;strokeColor=none;fillColor=none;align=left;verticalAlign=top;spacingLeft=4;spacingRight=4;overflow=hidden;rotatable=0;points=[[0,0.5],[1,0.5]];portConstraint=eastwest;" vertex="1" parent="pMwz3xdZ2TT84sI3ZfPQ-61">
          <mxGeometry y="188.4" width="316" height="30" as="geometry" />
        </mxCell>
        <mxCell id="pMwz3xdZ2TT84sI3ZfPQ-69" value="+ estimatedDuration: time/decimal(h)" style="text;strokeColor=none;fillColor=none;align=left;verticalAlign=top;spacingLeft=4;spacingRight=4;overflow=hidden;rotatable=0;points=[[0,0.5],[1,0.5]];portConstraint=eastwest;" vertex="1" parent="pMwz3xdZ2TT84sI3ZfPQ-61">
          <mxGeometry y="218.4" width="316" height="30" as="geometry" />
        </mxCell>
        <mxCell id="pMwz3xdZ2TT84sI3ZfPQ-70" value="+ responsibleUserID: int(FK)" style="text;strokeColor=none;fillColor=none;align=left;verticalAlign=top;spacingLeft=4;spacingRight=4;overflow=hidden;rotatable=0;points=[[0,0.5],[1,0.5]];portConstraint=eastwest;" vertex="1" parent="pMwz3xdZ2TT84sI3ZfPQ-61">
          <mxGeometry y="248.4" width="316" height="30" as="geometry" />
        </mxCell>
        <mxCell id="pMwz3xdZ2TT84sI3ZfPQ-71" value="+ fixedPrice: decimal(nullable, erand)" style="text;strokeColor=none;fillColor=none;align=left;verticalAlign=top;spacingLeft=4;spacingRight=4;overflow=hidden;rotatable=0;points=[[0,0.5],[1,0.5]];portConstraint=eastwest;" vertex="1" parent="pMwz3xdZ2TT84sI3ZfPQ-61">
          <mxGeometry y="278.4" width="316" height="30" as="geometry" />
        </mxCell>
        <mxCell id="pMwz3xdZ2TT84sI3ZfPQ-72" value="WorkLog" style="swimlane;fontStyle=1;align=center;verticalAlign=top;childLayout=stackLayout;horizontal=1;startSize=33.142857142857146;horizontalStack=0;resizeParent=1;resizeParentMax=0;resizeLast=0;collapsible=0;marginBottom=0;" vertex="1" parent="1">
          <mxGeometry x="873" y="620" width="259" height="239.14285714285714" as="geometry" />
        </mxCell>
        <mxCell id="pMwz3xdZ2TT84sI3ZfPQ-73" value="+ logDate: date" style="text;strokeColor=none;fillColor=none;align=left;verticalAlign=top;spacingLeft=4;spacingRight=4;overflow=hidden;rotatable=0;points=[[0,0.5],[1,0.5]];portConstraint=eastwest;" vertex="1" parent="pMwz3xdZ2TT84sI3ZfPQ-72">
          <mxGeometry y="33.142857142857146" width="259" height="33" as="geometry" />
        </mxCell>
        <mxCell id="pMwz3xdZ2TT84sI3ZfPQ-74" value="+ description: text" style="text;strokeColor=none;fillColor=none;align=left;verticalAlign=top;spacingLeft=4;spacingRight=4;overflow=hidden;rotatable=0;points=[[0,0.5],[1,0.5]];portConstraint=eastwest;" vertex="1" parent="pMwz3xdZ2TT84sI3ZfPQ-72">
          <mxGeometry y="66.14285714285714" width="259" height="33" as="geometry" />
        </mxCell>
        <mxCell id="pMwz3xdZ2TT84sI3ZfPQ-75" style="line;strokeWidth=1;fillColor=none;align=left;verticalAlign=middle;spacingTop=-1;spacingLeft=3;spacingRight=3;rotatable=0;labelPosition=right;points=[];portConstraint=eastwest;strokeColor=inherit;" vertex="1" parent="pMwz3xdZ2TT84sI3ZfPQ-72">
          <mxGeometry y="99.14285714285714" width="259" height="8" as="geometry" />
        </mxCell>
        <mxCell id="pMwz3xdZ2TT84sI3ZfPQ-76" value="+ logID: int(PK)" style="text;strokeColor=none;fillColor=none;align=left;verticalAlign=top;spacingLeft=4;spacingRight=4;overflow=hidden;rotatable=0;points=[[0,0.5],[1,0.5]];portConstraint=eastwest;" vertex="1" parent="pMwz3xdZ2TT84sI3ZfPQ-72">
          <mxGeometry y="107.14285714285714" width="259" height="33" as="geometry" />
        </mxCell>
        <mxCell id="pMwz3xdZ2TT84sI3ZfPQ-77" value="+ taskID: int(FK)" style="text;strokeColor=none;fillColor=none;align=left;verticalAlign=top;spacingLeft=4;spacingRight=4;overflow=hidden;rotatable=0;points=[[0,0.5],[1,0.5]];portConstraint=eastwest;" vertex="1" parent="pMwz3xdZ2TT84sI3ZfPQ-72">
          <mxGeometry y="140.14285714285714" width="259" height="33" as="geometry" />
        </mxCell>
        <mxCell id="pMwz3xdZ2TT84sI3ZfPQ-78" value="+ duration: time/decimal(h)" style="text;strokeColor=none;fillColor=none;align=left;verticalAlign=top;spacingLeft=4;spacingRight=4;overflow=hidden;rotatable=0;points=[[0,0.5],[1,0.5]];portConstraint=eastwest;" vertex="1" parent="pMwz3xdZ2TT84sI3ZfPQ-72">
          <mxGeometry y="173.14285714285714" width="259" height="33" as="geometry" />
        </mxCell>
        <mxCell id="pMwz3xdZ2TT84sI3ZfPQ-79" value="+ executorUserID: int(FK)" style="text;strokeColor=none;fillColor=none;align=left;verticalAlign=top;spacingLeft=4;spacingRight=4;overflow=hidden;rotatable=0;points=[[0,0.5],[1,0.5]];portConstraint=eastwest;" vertex="1" parent="pMwz3xdZ2TT84sI3ZfPQ-72">
          <mxGeometry y="206.14285714285714" width="259" height="33" as="geometry" />
        </mxCell>
        <mxCell id="pMwz3xdZ2TT84sI3ZfPQ-80" value="TaskFile" style="swimlane;fontStyle=1;align=center;verticalAlign=top;childLayout=stackLayout;horizontal=1;startSize=34.666666666666664;horizontalStack=0;resizeParent=1;resizeParentMax=0;resizeLast=0;collapsible=0;marginBottom=0;" vertex="1" parent="1">
          <mxGeometry x="890" y="925" width="225" height="217.66666666666666" as="geometry" />
        </mxCell>
        <mxCell id="pMwz3xdZ2TT84sI3ZfPQ-81" value="+ fileName: varchar" style="text;strokeColor=none;fillColor=none;align=left;verticalAlign=top;spacingLeft=4;spacingRight=4;overflow=hidden;rotatable=0;points=[[0,0.5],[1,0.5]];portConstraint=eastwest;" vertex="1" parent="pMwz3xdZ2TT84sI3ZfPQ-80">
          <mxGeometry y="34.666666666666664" width="225" height="35" as="geometry" />
        </mxCell>
        <mxCell id="pMwz3xdZ2TT84sI3ZfPQ-82" value="+ filePath: varchar" style="text;strokeColor=none;fillColor=none;align=left;verticalAlign=top;spacingLeft=4;spacingRight=4;overflow=hidden;rotatable=0;points=[[0,0.5],[1,0.5]];portConstraint=eastwest;" vertex="1" parent="pMwz3xdZ2TT84sI3ZfPQ-80">
          <mxGeometry y="69.66666666666666" width="225" height="35" as="geometry" />
        </mxCell>
        <mxCell id="pMwz3xdZ2TT84sI3ZfPQ-83" value="+ uploadDate: datetime" style="text;strokeColor=none;fillColor=none;align=left;verticalAlign=top;spacingLeft=4;spacingRight=4;overflow=hidden;rotatable=0;points=[[0,0.5],[1,0.5]];portConstraint=eastwest;" vertex="1" parent="pMwz3xdZ2TT84sI3ZfPQ-80">
          <mxGeometry y="104.66666666666666" width="225" height="35" as="geometry" />
        </mxCell>
        <mxCell id="pMwz3xdZ2TT84sI3ZfPQ-84" style="line;strokeWidth=1;fillColor=none;align=left;verticalAlign=middle;spacingTop=-1;spacingLeft=3;spacingRight=3;rotatable=0;labelPosition=right;points=[];portConstraint=eastwest;strokeColor=inherit;" vertex="1" parent="pMwz3xdZ2TT84sI3ZfPQ-80">
          <mxGeometry y="139.66666666666666" width="225" height="8" as="geometry" />
        </mxCell>
        <mxCell id="pMwz3xdZ2TT84sI3ZfPQ-85" value="+ fileID: int(PK)" style="text;strokeColor=none;fillColor=none;align=left;verticalAlign=top;spacingLeft=4;spacingRight=4;overflow=hidden;rotatable=0;points=[[0,0.5],[1,0.5]];portConstraint=eastwest;" vertex="1" parent="pMwz3xdZ2TT84sI3ZfPQ-80">
          <mxGeometry y="147.66666666666666" width="225" height="35" as="geometry" />
        </mxCell>
        <mxCell id="pMwz3xdZ2TT84sI3ZfPQ-86" value="+ taskID: int(FK)" style="text;strokeColor=none;fillColor=none;align=left;verticalAlign=top;spacingLeft=4;spacingRight=4;overflow=hidden;rotatable=0;points=[[0,0.5],[1,0.5]];portConstraint=eastwest;" vertex="1" parent="pMwz3xdZ2TT84sI3ZfPQ-80">
          <mxGeometry y="182.66666666666666" width="225" height="35" as="geometry" />
        </mxCell>
        <mxCell id="pMwz3xdZ2TT84sI3ZfPQ-87" value="is a member of" style="curved=1;startArrow=none;endArrow=none;exitX=1;exitY=0.06;entryX=0;entryY=0.44;rounded=0;" edge="1" parent="1" source="pMwz3xdZ2TT84sI3ZfPQ-42" target="pMwz3xdZ2TT84sI3ZfPQ-56">
          <mxGeometry relative="1" as="geometry">
            <Array as="points">
              <mxPoint x="345" y="573" />
            </Array>
          </mxGeometry>
        </mxCell>
        <mxCell id="pMwz3xdZ2TT84sI3ZfPQ-88" value="1" style="edgeLabel;resizable=0;labelBackgroundColor=none;fontSize=12;align=left;verticalAlign=bottom;" vertex="1" parent="pMwz3xdZ2TT84sI3ZfPQ-87">
          <mxGeometry x="-1" relative="1" as="geometry" />
        </mxCell>
        <mxCell id="pMwz3xdZ2TT84sI3ZfPQ-89" value="0..*" style="edgeLabel;resizable=0;labelBackgroundColor=none;fontSize=12;align=right;verticalAlign=top;" vertex="1" parent="pMwz3xdZ2TT84sI3ZfPQ-87">
          <mxGeometry x="1" relative="1" as="geometry" />
        </mxCell>
        <mxCell id="pMwz3xdZ2TT84sI3ZfPQ-90" value="has" style="curved=1;startArrow=none;endArrow=none;exitX=0.83;exitY=0;entryX=0;entryY=0.63;rounded=0;" edge="1" parent="1" source="pMwz3xdZ2TT84sI3ZfPQ-48" target="pMwz3xdZ2TT84sI3ZfPQ-56">
          <mxGeometry relative="1" as="geometry">
            <Array as="points">
              <mxPoint x="345" y="644" />
            </Array>
          </mxGeometry>
        </mxCell>
        <mxCell id="pMwz3xdZ2TT84sI3ZfPQ-91" value="1" style="edgeLabel;resizable=0;labelBackgroundColor=none;fontSize=12;align=left;verticalAlign=bottom;" vertex="1" parent="pMwz3xdZ2TT84sI3ZfPQ-90">
          <mxGeometry x="-1" relative="1" as="geometry" />
        </mxCell>
        <mxCell id="pMwz3xdZ2TT84sI3ZfPQ-92" value="0..*" style="edgeLabel;resizable=0;labelBackgroundColor=none;fontSize=12;align=right;verticalAlign=top;" vertex="1" parent="pMwz3xdZ2TT84sI3ZfPQ-90">
          <mxGeometry x="1" relative="1" as="geometry" />
        </mxCell>
        <mxCell id="pMwz3xdZ2TT84sI3ZfPQ-93" value="includes" style="curved=1;startArrow=none;endArrow=none;exitX=1;exitY=0.5;entryX=0;entryY=0.46;rounded=0;" edge="1" parent="1" source="pMwz3xdZ2TT84sI3ZfPQ-48" target="pMwz3xdZ2TT84sI3ZfPQ-61">
          <mxGeometry relative="1" as="geometry">
            <Array as="points">
              <mxPoint x="345" y="990" />
            </Array>
          </mxGeometry>
        </mxCell>
        <mxCell id="pMwz3xdZ2TT84sI3ZfPQ-94" value="1" style="edgeLabel;resizable=0;labelBackgroundColor=none;fontSize=12;align=left;verticalAlign=bottom;" vertex="1" parent="pMwz3xdZ2TT84sI3ZfPQ-93">
          <mxGeometry x="-1" relative="1" as="geometry" />
        </mxCell>
        <mxCell id="pMwz3xdZ2TT84sI3ZfPQ-95" value="0..*" style="edgeLabel;resizable=0;labelBackgroundColor=none;fontSize=12;align=right;verticalAlign=top;" vertex="1" parent="pMwz3xdZ2TT84sI3ZfPQ-93">
          <mxGeometry x="1" relative="1" as="geometry" />
        </mxCell>
        <mxCell id="pMwz3xdZ2TT84sI3ZfPQ-96" value="is responsible for" style="curved=1;startArrow=none;endArrow=none;exitX=0.78;exitY=1;entryX=0;entryY=0.54;rounded=0;" edge="1" parent="1" source="pMwz3xdZ2TT84sI3ZfPQ-42" target="pMwz3xdZ2TT84sI3ZfPQ-61">
          <mxGeometry relative="1" as="geometry">
            <Array as="points">
              <mxPoint x="345" y="1033" />
            </Array>
          </mxGeometry>
        </mxCell>
        <mxCell id="pMwz3xdZ2TT84sI3ZfPQ-97" value="1" style="edgeLabel;resizable=0;labelBackgroundColor=none;fontSize=12;align=left;verticalAlign=top;" vertex="1" parent="pMwz3xdZ2TT84sI3ZfPQ-96">
          <mxGeometry x="-1" relative="1" as="geometry" />
        </mxCell>
        <mxCell id="pMwz3xdZ2TT84sI3ZfPQ-98" value="0..*" style="edgeLabel;resizable=0;labelBackgroundColor=none;fontSize=12;align=right;verticalAlign=bottom;" vertex="1" parent="pMwz3xdZ2TT84sI3ZfPQ-96">
          <mxGeometry x="1" relative="1" as="geometry" />
        </mxCell>
        <mxCell id="pMwz3xdZ2TT84sI3ZfPQ-99" value="is executed by" style="curved=1;startArrow=none;endArrow=none;exitX=1;exitY=0.5;entryX=0;entryY=0.46;rounded=0;" edge="1" parent="1" source="pMwz3xdZ2TT84sI3ZfPQ-42" target="pMwz3xdZ2TT84sI3ZfPQ-72">
          <mxGeometry relative="1" as="geometry">
            <Array as="points">
              <mxPoint x="811" y="724" />
            </Array>
          </mxGeometry>
        </mxCell>
        <mxCell id="pMwz3xdZ2TT84sI3ZfPQ-100" value="1" style="edgeLabel;resizable=0;labelBackgroundColor=none;fontSize=12;align=left;verticalAlign=bottom;" vertex="1" parent="pMwz3xdZ2TT84sI3ZfPQ-99">
          <mxGeometry x="-1" relative="1" as="geometry" />
        </mxCell>
        <mxCell id="pMwz3xdZ2TT84sI3ZfPQ-101" value="0..*" style="edgeLabel;resizable=0;labelBackgroundColor=none;fontSize=12;align=right;verticalAlign=top;" vertex="1" parent="pMwz3xdZ2TT84sI3ZfPQ-99">
          <mxGeometry x="1" relative="1" as="geometry" />
        </mxCell>
        <mxCell id="pMwz3xdZ2TT84sI3ZfPQ-102" value="generates" style="curved=1;startArrow=none;endArrow=none;exitX=1;exitY=0.18;entryX=0;entryY=0.87;rounded=0;" edge="1" parent="1" source="pMwz3xdZ2TT84sI3ZfPQ-61" target="pMwz3xdZ2TT84sI3ZfPQ-72">
          <mxGeometry relative="1" as="geometry">
            <Array as="points">
              <mxPoint x="811" y="873" />
            </Array>
          </mxGeometry>
        </mxCell>
        <mxCell id="pMwz3xdZ2TT84sI3ZfPQ-103" value="1" style="edgeLabel;resizable=0;labelBackgroundColor=none;fontSize=12;align=left;verticalAlign=bottom;" vertex="1" parent="pMwz3xdZ2TT84sI3ZfPQ-102">
          <mxGeometry x="-1" relative="1" as="geometry" />
        </mxCell>
        <mxCell id="pMwz3xdZ2TT84sI3ZfPQ-104" value="0..*" style="edgeLabel;resizable=0;labelBackgroundColor=none;fontSize=12;align=right;verticalAlign=top;" vertex="1" parent="pMwz3xdZ2TT84sI3ZfPQ-102">
          <mxGeometry x="1" relative="1" as="geometry" />
        </mxCell>
        <mxCell id="pMwz3xdZ2TT84sI3ZfPQ-105" value="has" style="curved=1;startArrow=none;endArrow=none;exitX=1;exitY=0.55;entryX=0;entryY=0.5;rounded=0;" edge="1" parent="1" source="pMwz3xdZ2TT84sI3ZfPQ-61" target="pMwz3xdZ2TT84sI3ZfPQ-80">
          <mxGeometry relative="1" as="geometry">
            <Array as="points">
              <mxPoint x="811" y="1033" />
            </Array>
          </mxGeometry>
        </mxCell>
        <mxCell id="pMwz3xdZ2TT84sI3ZfPQ-106" value="1" style="edgeLabel;resizable=0;labelBackgroundColor=none;fontSize=12;align=left;verticalAlign=bottom;" vertex="1" parent="pMwz3xdZ2TT84sI3ZfPQ-105">
          <mxGeometry x="-1" relative="1" as="geometry" />
        </mxCell>
        <mxCell id="pMwz3xdZ2TT84sI3ZfPQ-107" value="0..*" style="edgeLabel;resizable=0;labelBackgroundColor=none;fontSize=12;align=right;verticalAlign=top;" vertex="1" parent="pMwz3xdZ2TT84sI3ZfPQ-105">
          <mxGeometry x="1" relative="1" as="geometry" />
        </mxCell>
      </root>
    </mxGraphModel>
  </diagram>
</mxfile>
